<svg xmlns="http://www.w3.org/2000/svg" viewBox="0 0 500 500" style="enable-background:new 0 0 500 500" xml:space="preserve">
  <style>
    .st0{display:none}.st1{display:inline}.st2{fill:#fff;stroke-width:5}.st10,.st2,.st5,.st8{stroke:#000;stroke-miterlimit:10}.st5{display:inline;fill:#fff;stroke-width:3}.st10,.st8{fill:none;stroke-width:2;stroke-linecap:round;stroke-linejoin:round}.st10{stroke-width:5}
  </style>
  <g id="Layer_4">
    <path d="M433.7 251c15.7 31.4 6.2 60.8-24.1 79.6 1.9 24.8-13.5 40.9-41.8 43.9-9.2 24.7-31.7 35.9-61.5 30.3-4.2 15.6-26.7 16.3-51.2 2.6-28.1 12.4-58.7 9.8-64.6-5.6-28 6.4-48.4 2.2-56.7-20.5-28.9-2.2-48.2-18.7-48.3-45.8-30.7-18.8-43.8-52.2-28.2-84.4-15.7-31.8-5.8-61.7 25-80.9-1.1-25.3 15.2-41.9 44.3-45 10-24.4 33.1-35.3 62.9-29.2 4.8-15.4 30.2-16.6 56-3.4 26.6-13 53.5-11.5 58.8 4.1 29.1-5.9 51.3 4.8 60.7 28.8 29.5 3.5 46 20.4 44.7 46 30.2 19 39.6 48.3 24 79.5z" style="fill:#dbccc3"/>
    <path class="st10" d="M433.7 251c15.7 31.4 6.2 60.8-24.1 79.6 1.9 24.8-13.5 40.9-41.8 43.9-9.2 24.7-31.7 35.9-61.5 30.3-4.2 15.6-26.7 16.3-51.2 2.6-28.1 12.4-58.7 9.8-64.6-5.6-28 6.4-48.4 2.2-56.7-20.5-28.9-2.2-48.2-18.7-48.3-45.8-30.7-18.8-43.8-52.2-28.2-84.4-15.7-31.8-5.8-61.7 25-80.9-1.1-25.3 15.2-41.9 44.3-45 10-24.4 33.1-35.3 62.9-29.2 4.8-15.4 30.2-16.6 56-3.4 26.6-13 53.5-11.5 58.8 4.1 29.1-5.9 51.3 4.8 60.7 28.8 29.5 3.5 46 20.4 44.7 46 30.2 19 39.6 48.3 24 79.5z"/>
    <path d="M394.2 178.8c-5.9 0-11.7 0-17.2.2-.4-1-.9-1.9-1.4-2.9-6.6 5.6-19.2 11.9-41.7 10.4-38.8-2.7-50.2-26.9-50.2-26.9s-15.2 20.6-50.9 17.6c-35.8-3-43.7-20.3-43.7-20.3-16.7 19.4-37.5 24.8-55.7 23.9-3.8-.2-7.1-1.1-9.9-2.3-.2.3-.3.7-.5 1-7.9-.7-16.9-.8-26.1-.8-29.1 0-64.4 19.5-58.4 36.7 5.6 16.4 27.8 29.1 52.7 30.5 6.5.4 13.1-1 19.5-3.5 1.4 79.8 63.2 144 139.4 144 75.3 0 136.7-62.8 139.4-141.4 3.5.7 7 1 10.5.8 24.9-1.4 47.1-14.1 52.7-30.5 5.8-17-29.4-36.5-58.5-36.5z" style="fill:#fff;stroke:#000;stroke-width:5;stroke-linecap:round;stroke-linejoin:round;stroke-miterlimit:10"/>
    <circle cx="204.8" cy="284.2" r="12.5"/>
    <circle cx="286.2" cy="284.2" r="12.5"/>
    <path class="st10" d="M238.7 307.2s1.4 5.8 8.4 5.8 9.1-5.4 9.1-5.4M224.5 340.7s7.8 7 14.3 3.8c4.7-2.3 8.7-7.4 8.7-18"/>
    <g>
      <path class="st10" d="M270.4 340.7s-7.8 7-14.3 3.8c-4.7-2.3-8.7-7.4-8.7-18"/>
    </g>
  </g>
</svg>
